<mxfile host="app.diagrams.net" modified="2023-05-24T14:24:05.435Z" agent="Mozilla/5.0 (Windows NT 10.0; Win64; x64) AppleWebKit/537.36 (KHTML, like Gecko) Chrome/113.0.0.0 Safari/537.36" etag="JSNbRCAvBZyCGu49oQVn" version="21.3.2" type="github">
  <diagram id="R2lEEEUBdFMjLlhIrx00" name="Page-1">
    <mxGraphModel dx="875" dy="478" grid="1" gridSize="10" guides="1" tooltips="1" connect="1" arrows="1" fold="1" page="1" pageScale="1" pageWidth="583" pageHeight="827" math="0" shadow="0" extFonts="Permanent Marker^https://fonts.googleapis.com/css?family=Permanent+Marker">
      <root>
        <mxCell id="0" />
        <mxCell id="1" parent="0" />
        <mxCell id="5dkXH1X9vFJUfWhf-pJQ-1" value="角色" style="rounded=0;fontFamily=宋体;fontSize=13;" parent="1" vertex="1">
          <mxGeometry x="274.89361702127655" y="67.29411764705883" width="56.595744680851055" height="31.058823529411768" as="geometry" />
        </mxCell>
        <mxCell id="5dkXH1X9vFJUfWhf-pJQ-2" value="用户" style="rounded=0;fontFamily=宋体;fontSize=13;" parent="1" vertex="1">
          <mxGeometry x="72.76595744680849" y="67.29411764705883" width="56.595744680851055" height="31.058823529411768" as="geometry" />
        </mxCell>
        <mxCell id="5dkXH1X9vFJUfWhf-pJQ-3" value="权限" style="rounded=0;fontFamily=宋体;fontSize=13;" parent="1" vertex="1">
          <mxGeometry x="485.10638297872333" y="67.29411764705883" width="56.595744680851055" height="31.058823529411768" as="geometry" />
        </mxCell>
        <mxCell id="5dkXH1X9vFJUfWhf-pJQ-5" value="图像信息" style="rounded=0;fontFamily=宋体;fontSize=13;" parent="1" vertex="1">
          <mxGeometry x="177.87319148936166" y="232.94117647058826" width="56.595744680851055" height="31.058823529411768" as="geometry" />
        </mxCell>
        <mxCell id="5dkXH1X9vFJUfWhf-pJQ-11" value="" style="edgeStyle=orthogonalEdgeStyle;shape=connector;rounded=0;orthogonalLoop=1;jettySize=auto;exitX=0;exitY=0.5;exitDx=0;exitDy=0;entryX=1;entryY=0.5;entryDx=0;entryDy=0;labelBackgroundColor=default;strokeColor=default;fontFamily=宋体;fontSize=13;fontColor=default;endArrow=none;endFill=0;" parent="1" source="5dkXH1X9vFJUfWhf-pJQ-6" target="5dkXH1X9vFJUfWhf-pJQ-2" edge="1">
          <mxGeometry relative="1" as="geometry" />
        </mxCell>
        <mxCell id="5dkXH1X9vFJUfWhf-pJQ-6" value="绑定" style="rhombus;fontFamily=宋体;fontSize=13;" parent="1" vertex="1">
          <mxGeometry x="177.87234042553186" y="62.117647058823536" width="48.510638297872326" height="41.411764705882355" as="geometry" />
        </mxCell>
        <mxCell id="5dkXH1X9vFJUfWhf-pJQ-10" value="" style="edgeStyle=orthogonalEdgeStyle;shape=connector;rounded=0;orthogonalLoop=1;jettySize=auto;exitX=0;exitY=0.5;exitDx=0;exitDy=0;entryX=1;entryY=0.5;entryDx=0;entryDy=0;labelBackgroundColor=default;strokeColor=default;fontFamily=宋体;fontSize=13;fontColor=default;endArrow=none;endFill=0;" parent="1" source="5dkXH1X9vFJUfWhf-pJQ-1" target="5dkXH1X9vFJUfWhf-pJQ-6" edge="1">
          <mxGeometry relative="1" as="geometry" />
        </mxCell>
        <mxCell id="5dkXH1X9vFJUfWhf-pJQ-9" value="" style="edgeStyle=orthogonalEdgeStyle;shape=connector;rounded=0;orthogonalLoop=1;jettySize=auto;exitX=0.5;exitY=1;exitDx=0;exitDy=0;entryX=0.5;entryY=0;entryDx=0;entryDy=0;labelBackgroundColor=default;strokeColor=default;fontFamily=宋体;fontSize=13;fontColor=default;endArrow=none;endFill=0;" parent="1" source="5dkXH1X9vFJUfWhf-pJQ-7" target="5dkXH1X9vFJUfWhf-pJQ-5" edge="1">
          <mxGeometry relative="1" as="geometry">
            <Array as="points">
              <mxPoint x="205.32" y="210" />
              <mxPoint x="205.32" y="210" />
            </Array>
          </mxGeometry>
        </mxCell>
        <mxCell id="5dkXH1X9vFJUfWhf-pJQ-7" value="上传与收藏" style="rhombus;fontFamily=宋体;fontSize=13;" parent="1" vertex="1">
          <mxGeometry x="159.42000000000002" y="160.47" width="93.51" height="41.41" as="geometry" />
        </mxCell>
        <mxCell id="5dkXH1X9vFJUfWhf-pJQ-67" value="" style="edgeStyle=orthogonalEdgeStyle;shape=connector;rounded=0;orthogonalLoop=1;jettySize=auto;exitX=0.5;exitY=1;exitDx=0;exitDy=0;entryX=0.5;entryY=0;entryDx=0;entryDy=0;labelBackgroundColor=default;strokeColor=default;fontFamily=宋体;fontSize=13;fontColor=default;endArrow=none;endFill=0;" parent="1" source="5dkXH1X9vFJUfWhf-pJQ-2" target="5dkXH1X9vFJUfWhf-pJQ-7" edge="1">
          <mxGeometry relative="1" as="geometry" />
        </mxCell>
        <mxCell id="5dkXH1X9vFJUfWhf-pJQ-14" value="" style="edgeStyle=orthogonalEdgeStyle;shape=connector;rounded=0;orthogonalLoop=1;jettySize=auto;exitX=0;exitY=0.5;exitDx=0;exitDy=0;entryX=1;entryY=0.5;entryDx=0;entryDy=0;labelBackgroundColor=default;strokeColor=default;fontFamily=宋体;fontSize=13;fontColor=default;endArrow=none;endFill=0;" parent="1" source="5dkXH1X9vFJUfWhf-pJQ-12" target="5dkXH1X9vFJUfWhf-pJQ-1" edge="1">
          <mxGeometry relative="1" as="geometry" />
        </mxCell>
        <mxCell id="5dkXH1X9vFJUfWhf-pJQ-12" value="拥有" style="rhombus;fontFamily=宋体;fontSize=13;" parent="1" vertex="1">
          <mxGeometry x="388.0851063829786" y="62.117647058823536" width="48.510638297872326" height="41.411764705882355" as="geometry" />
        </mxCell>
        <mxCell id="5dkXH1X9vFJUfWhf-pJQ-13" value="" style="edgeStyle=orthogonalEdgeStyle;shape=connector;rounded=0;orthogonalLoop=1;jettySize=auto;exitX=0;exitY=0.5;exitDx=0;exitDy=0;entryX=1;entryY=0.5;entryDx=0;entryDy=0;labelBackgroundColor=default;strokeColor=default;fontFamily=宋体;fontSize=13;fontColor=default;endArrow=none;endFill=0;" parent="1" source="5dkXH1X9vFJUfWhf-pJQ-3" target="5dkXH1X9vFJUfWhf-pJQ-12" edge="1">
          <mxGeometry relative="1" as="geometry" />
        </mxCell>
        <mxCell id="5dkXH1X9vFJUfWhf-pJQ-15" value="m" style="text;strokeColor=none;fillColor=none;align=center;verticalAlign=middle;rounded=0;fontSize=13;fontFamily=Times New Roman;fontColor=default;" parent="1" vertex="1">
          <mxGeometry x="202.32106382978714" y="139.76470588235296" width="16.170212765957444" height="10.352941176470589" as="geometry" />
        </mxCell>
        <mxCell id="5dkXH1X9vFJUfWhf-pJQ-16" value="n" style="text;strokeColor=none;fillColor=none;align=center;verticalAlign=middle;rounded=0;fontSize=13;fontFamily=Times New Roman;fontColor=default;" parent="1" vertex="1">
          <mxGeometry x="210.20999999999998" y="207.06" width="16.17" height="12.94" as="geometry" />
        </mxCell>
        <mxCell id="5dkXH1X9vFJUfWhf-pJQ-19" value="标签" style="rounded=0;fontFamily=宋体;fontSize=13;" parent="1" vertex="1">
          <mxGeometry x="72.76595744680849" y="398.5882352941177" width="56.595744680851055" height="31.058823529411768" as="geometry" />
        </mxCell>
        <mxCell id="5dkXH1X9vFJUfWhf-pJQ-71" value="" style="edgeStyle=orthogonalEdgeStyle;shape=connector;rounded=0;orthogonalLoop=1;jettySize=auto;exitX=0.5;exitY=1;exitDx=0;exitDy=0;entryX=1;entryY=0.5;entryDx=0;entryDy=0;labelBackgroundColor=default;strokeColor=default;fontFamily=宋体;fontSize=13;fontColor=default;endArrow=none;endFill=0;" parent="1" source="5dkXH1X9vFJUfWhf-pJQ-20" target="5dkXH1X9vFJUfWhf-pJQ-19" edge="1">
          <mxGeometry relative="1" as="geometry" />
        </mxCell>
        <mxCell id="5dkXH1X9vFJUfWhf-pJQ-20" value="绑定" style="rhombus;fontFamily=宋体;fontSize=13;" parent="1" vertex="1">
          <mxGeometry x="181.91574468085105" y="320.94117647058835" width="48.510638297872326" height="41.411764705882355" as="geometry" />
        </mxCell>
        <mxCell id="5dkXH1X9vFJUfWhf-pJQ-70" value="" style="edgeStyle=orthogonalEdgeStyle;shape=connector;rounded=0;orthogonalLoop=1;jettySize=auto;exitX=0.5;exitY=1;exitDx=0;exitDy=0;entryX=0.5;entryY=0;entryDx=0;entryDy=0;labelBackgroundColor=default;strokeColor=default;fontFamily=宋体;fontSize=13;fontColor=default;endArrow=none;endFill=0;" parent="1" source="5dkXH1X9vFJUfWhf-pJQ-5" target="5dkXH1X9vFJUfWhf-pJQ-20" edge="1">
          <mxGeometry relative="1" as="geometry" />
        </mxCell>
        <mxCell id="5dkXH1X9vFJUfWhf-pJQ-24" value="图像信息" style="rounded=0;fontFamily=宋体;fontSize=13;" parent="1" vertex="1">
          <mxGeometry x="448.7242553191489" y="232.94117647058826" width="56.595744680851055" height="31.058823529411768" as="geometry" />
        </mxCell>
        <mxCell id="5dkXH1X9vFJUfWhf-pJQ-35" value="" style="edgeStyle=orthogonalEdgeStyle;shape=connector;rounded=0;orthogonalLoop=1;jettySize=auto;exitX=0;exitY=0.5;exitDx=0;exitDy=0;entryX=1;entryY=0.5;entryDx=0;entryDy=0;labelBackgroundColor=default;strokeColor=default;fontFamily=宋体;fontSize=13;fontColor=default;endArrow=none;endFill=0;" parent="1" source="5dkXH1X9vFJUfWhf-pJQ-25" target="5dkXH1X9vFJUfWhf-pJQ-5" edge="1">
          <mxGeometry relative="1" as="geometry" />
        </mxCell>
        <mxCell id="5dkXH1X9vFJUfWhf-pJQ-38" value="" style="edgeStyle=orthogonalEdgeStyle;shape=connector;rounded=0;orthogonalLoop=1;jettySize=auto;exitX=1;exitY=0.5;exitDx=0;exitDy=0;entryX=0;entryY=0.5;entryDx=0;entryDy=0;labelBackgroundColor=default;strokeColor=default;fontFamily=宋体;fontSize=13;fontColor=default;endArrow=none;endFill=0;" parent="1" source="5dkXH1X9vFJUfWhf-pJQ-25" target="5dkXH1X9vFJUfWhf-pJQ-24" edge="1">
          <mxGeometry relative="1" as="geometry" />
        </mxCell>
        <mxCell id="5dkXH1X9vFJUfWhf-pJQ-25" value="原图与缩略图" style="rhombus;fontFamily=宋体;fontSize=13;" parent="1" vertex="1">
          <mxGeometry x="299.15" y="201.88" width="106.17" height="41.41" as="geometry" />
        </mxCell>
        <mxCell id="5dkXH1X9vFJUfWhf-pJQ-37" value="" style="edgeStyle=orthogonalEdgeStyle;shape=connector;rounded=0;orthogonalLoop=1;jettySize=auto;exitX=1;exitY=0.5;exitDx=0;exitDy=0;entryX=0;entryY=0.5;entryDx=0;entryDy=0;labelBackgroundColor=default;strokeColor=default;fontFamily=宋体;fontSize=13;fontColor=default;endArrow=none;endFill=0;" parent="1" source="5dkXH1X9vFJUfWhf-pJQ-26" target="5dkXH1X9vFJUfWhf-pJQ-24" edge="1">
          <mxGeometry relative="1" as="geometry" />
        </mxCell>
        <mxCell id="5dkXH1X9vFJUfWhf-pJQ-26" value="原图与修复图" style="rhombus;fontFamily=宋体;fontSize=13;" parent="1" vertex="1">
          <mxGeometry x="299.15" y="253.65" width="106.17" height="41.41" as="geometry" />
        </mxCell>
        <mxCell id="5dkXH1X9vFJUfWhf-pJQ-36" value="" style="edgeStyle=orthogonalEdgeStyle;shape=connector;rounded=0;orthogonalLoop=1;jettySize=auto;exitX=1;exitY=0.5;exitDx=0;exitDy=0;entryX=0;entryY=0.5;entryDx=0;entryDy=0;labelBackgroundColor=default;strokeColor=default;fontFamily=宋体;fontSize=13;fontColor=default;endArrow=none;endFill=0;" parent="1" source="5dkXH1X9vFJUfWhf-pJQ-5" target="5dkXH1X9vFJUfWhf-pJQ-26" edge="1">
          <mxGeometry relative="1" as="geometry" />
        </mxCell>
        <mxCell id="5dkXH1X9vFJUfWhf-pJQ-48" value="m" style="text;strokeColor=none;fillColor=none;align=center;verticalAlign=middle;rounded=0;fontSize=13;fontFamily=Times New Roman;fontColor=default;" parent="1" vertex="1">
          <mxGeometry x="153.6170212765957" y="82.82352941176471" width="16.170212765957444" height="10.352941176470589" as="geometry" />
        </mxCell>
        <mxCell id="5dkXH1X9vFJUfWhf-pJQ-49" value="n" style="text;strokeColor=none;fillColor=none;align=center;verticalAlign=middle;rounded=0;fontSize=13;fontFamily=Times New Roman;fontColor=default;" parent="1" vertex="1">
          <mxGeometry x="234.46808510638294" y="82.82352941176471" width="16.170212765957444" height="10.352941176470589" as="geometry" />
        </mxCell>
        <mxCell id="5dkXH1X9vFJUfWhf-pJQ-50" value="m" style="text;strokeColor=none;fillColor=none;align=center;verticalAlign=middle;rounded=0;fontSize=13;fontFamily=Times New Roman;fontColor=default;" parent="1" vertex="1">
          <mxGeometry x="347.65957446808505" y="82.82352941176471" width="16.170212765957444" height="10.352941176470589" as="geometry" />
        </mxCell>
        <mxCell id="5dkXH1X9vFJUfWhf-pJQ-51" value="n" style="text;strokeColor=none;fillColor=none;align=center;verticalAlign=middle;rounded=0;fontSize=13;fontFamily=Times New Roman;fontColor=default;" parent="1" vertex="1">
          <mxGeometry x="444.68085106382966" y="82.82352941176471" width="16.170212765957444" height="10.352941176470589" as="geometry" />
        </mxCell>
        <mxCell id="5dkXH1X9vFJUfWhf-pJQ-74" value="" style="edgeStyle=orthogonalEdgeStyle;shape=connector;rounded=0;orthogonalLoop=1;jettySize=auto;exitX=0.5;exitY=0;exitDx=0;exitDy=0;entryX=0.5;entryY=1;entryDx=0;entryDy=0;labelBackgroundColor=default;strokeColor=default;fontFamily=宋体;fontSize=13;fontColor=default;endArrow=none;endFill=0;" parent="1" source="5dkXH1X9vFJUfWhf-pJQ-72" target="5dkXH1X9vFJUfWhf-pJQ-2" edge="1">
          <mxGeometry relative="1" as="geometry" />
        </mxCell>
        <mxCell id="5dkXH1X9vFJUfWhf-pJQ-72" value="定义" style="rhombus;fontFamily=宋体;fontSize=13;" parent="1" vertex="1">
          <mxGeometry x="76.80851063829785" y="222.58823529411768" width="48.510638297872326" height="41.411764705882355" as="geometry" />
        </mxCell>
        <mxCell id="5dkXH1X9vFJUfWhf-pJQ-73" value="" style="edgeStyle=orthogonalEdgeStyle;shape=connector;rounded=0;orthogonalLoop=1;jettySize=auto;exitX=0.5;exitY=0;exitDx=0;exitDy=0;entryX=0.5;entryY=1;entryDx=0;entryDy=0;labelBackgroundColor=default;strokeColor=default;fontFamily=宋体;fontSize=13;fontColor=default;endArrow=none;endFill=0;" parent="1" source="5dkXH1X9vFJUfWhf-pJQ-19" target="5dkXH1X9vFJUfWhf-pJQ-72" edge="1">
          <mxGeometry relative="1" as="geometry" />
        </mxCell>
        <mxCell id="5dkXH1X9vFJUfWhf-pJQ-87" value="n" style="text;strokeColor=none;fillColor=none;align=center;verticalAlign=middle;rounded=0;fontSize=13;fontFamily=Times New Roman;fontColor=default;" parent="1" vertex="1">
          <mxGeometry x="103.83106382978715" y="310.5852941176471" width="16.170212765957444" height="10.352941176470589" as="geometry" />
        </mxCell>
        <mxCell id="5dkXH1X9vFJUfWhf-pJQ-88" value="1" style="text;strokeColor=none;fillColor=none;align=center;verticalAlign=middle;rounded=0;fontSize=13;fontFamily=Times New Roman;fontColor=default;" parent="1" vertex="1">
          <mxGeometry x="97.02106382978715" y="191.5252941176471" width="16.170212765957444" height="10.352941176470589" as="geometry" />
        </mxCell>
        <mxCell id="5dkXH1X9vFJUfWhf-pJQ-89" value="m" style="text;strokeColor=none;fillColor=none;align=center;verticalAlign=middle;rounded=0;fontSize=13;fontFamily=Times New Roman;fontColor=default;" parent="1" vertex="1">
          <mxGeometry x="153.62106382978715" y="398.584705882353" width="16.170212765957444" height="10.352941176470589" as="geometry" />
        </mxCell>
        <mxCell id="5dkXH1X9vFJUfWhf-pJQ-90" value="n" style="text;strokeColor=none;fillColor=none;align=center;verticalAlign=middle;rounded=0;fontSize=13;fontFamily=Times New Roman;fontColor=default;" parent="1" vertex="1">
          <mxGeometry x="210.21106382978718" y="297.6452941176471" width="16.170212765957444" height="10.352941176470589" as="geometry" />
        </mxCell>
        <mxCell id="5dkXH1X9vFJUfWhf-pJQ-118" value="1" style="text;strokeColor=none;fillColor=none;align=center;verticalAlign=middle;rounded=0;fontSize=13;fontFamily=Times New Roman;fontColor=default;" parent="1" vertex="1">
          <mxGeometry x="282.98106382978716" y="207.0552941176471" width="16.170212765957444" height="10.352941176470589" as="geometry" />
        </mxCell>
        <mxCell id="5dkXH1X9vFJUfWhf-pJQ-119" value="1" style="text;strokeColor=none;fillColor=none;align=center;verticalAlign=middle;rounded=0;fontSize=13;fontFamily=Times New Roman;fontColor=default;" parent="1" vertex="1">
          <mxGeometry x="406.49106382978715" y="207.0552941176471" width="16.170212765957444" height="10.352941176470589" as="geometry" />
        </mxCell>
        <mxCell id="5dkXH1X9vFJUfWhf-pJQ-120" value="1" style="text;strokeColor=none;fillColor=none;align=center;verticalAlign=middle;rounded=0;fontSize=13;fontFamily=Times New Roman;fontColor=default;" parent="1" vertex="1">
          <mxGeometry x="282.98106382978716" y="259.99529411764706" width="16.170212765957444" height="10.352941176470589" as="geometry" />
        </mxCell>
        <mxCell id="5dkXH1X9vFJUfWhf-pJQ-121" value="n" style="text;strokeColor=none;fillColor=none;align=center;verticalAlign=middle;rounded=0;fontSize=13;fontFamily=Times New Roman;fontColor=default;" parent="1" vertex="1">
          <mxGeometry x="404.98106382978716" y="259.99529411764706" width="16.170212765957444" height="10.352941176470589" as="geometry" />
        </mxCell>
      </root>
    </mxGraphModel>
  </diagram>
</mxfile>
